<?xml version="1.0" encoding="iso-8859-1"?>
<!-- Uploaded to: SVG Repo, www.svgrepo.com, Generator: SVG Repo Mixer Tools -->
<svg fill="#000000" height="800px" width="800px" version="1.1" id="Layer_1" xmlns="http://www.w3.org/2000/svg" xmlns:xlink="http://www.w3.org/1999/xlink" 
	 viewBox="0 0 512 512" xml:space="preserve">
<g>
	<g>
		<path d="M490.407,465.395h-0.413v-56.594c0-2.487-1.124-4.708-2.89-6.191V243.523c0-4.466-3.618-8.084-8.084-8.084
			c-4.466,0-8.084,3.618-8.084,8.084v157.194h-83.227V171.285h83.227v45.291c0,4.466,3.619,8.084,8.084,8.084
			c4.466,0,8.084-3.618,8.084-8.084v-53.375v-30.338v-9.76c0-31.861-25.921-57.781-57.782-57.781c-2.933,0-5.815,0.223-8.633,0.648
			V20.176c0-11.071-9.006-20.078-20.077-20.078h-89.697c-11.071,0-20.078,9.007-20.078,20.078v45.628
			c-2.407-0.307-4.854-0.483-7.343-0.483s-4.936,0.176-7.343,0.483V20.176c0-11.071-9.006-20.078-20.077-20.078h-90.775
			c-11.071,0-20.078,9.007-20.078,20.078V65.87c-2.573-0.351-5.194-0.549-7.862-0.549c-31.861,0-57.782,25.92-57.782,57.781v9.76
			v30.338v48.885H19.82c-4.466,0-8.084,3.618-8.084,8.084v247.629C4.778,471.388,0,478.634,0,486.988v3.32
			c0,11.906,9.687,21.593,21.594,21.593h371.025c4.466,0,8.084-3.618,8.084-8.084c0-4.466-3.618-8.084-8.084-8.084H21.593
			c-2.991,0-5.425-2.434-5.425-5.425v-3.32c0-2.991,2.434-5.425,5.425-5.425h66.071h102.593h40.652h105.175h40.652h105.174h8.497
			c2.991,0,5.425,2.434,5.425,5.425v3.32c0,2.991-2.434,5.425-5.425,5.425h-70.48c-4.466,0-8.084,3.618-8.084,8.084
			c0,4.466,3.619,8.084,8.084,8.084h70.48c11.906,0,21.593-9.687,21.593-21.593v-3.32C512,475.082,502.313,465.395,490.407,465.395z
			 M79.58,243.523H47.624c-4.466,0-8.084,3.618-8.084,8.084c0,4.466,3.618,8.084,8.084,8.084H79.58v15.269H47.624
			c-4.466,0-8.084,3.618-8.084,8.084c0,4.466,3.618,8.084,8.084,8.084H79.58v15.269H47.624c-4.466,0-8.084,3.618-8.084,8.084
			c0,4.466,3.618,8.084,8.084,8.084H79.58v15.272H47.624c-4.466,0-8.084,3.618-8.084,8.084c0,4.466,3.618,8.084,8.084,8.084H79.58
			v15.269H47.624c-4.466,0-8.084,3.618-8.084,8.084c0,4.466,3.618,8.084,8.084,8.084H79.58v15.272H47.624
			c-4.466,0-8.084,3.619-8.084,8.084c0,4.466,3.618,8.084,8.084,8.084H79.58v15.269H47.624c-4.466,0-8.084,3.619-8.084,8.084
			s3.618,8.084,8.084,8.084H79.58v17.072H27.906V228.254H79.58V243.523z M470.935,155.117h-83.227v-14.17h83.227V155.117z
			 M429.321,81.49c22.946,0,41.614,18.667,41.614,41.612v1.676h-83.227v-1.676C387.708,100.157,406.375,81.49,429.321,81.49z
			 M283.495,81.49c22.946,0,41.614,18.667,41.614,41.612v1.676h-83.227v-1.676C241.882,100.157,260.549,81.49,283.495,81.49z
			 M325.109,140.947v14.17h-83.227v-14.17H325.109z M95.748,123.102c0-22.945,18.667-41.612,41.614-41.612
			c22.946,0,41.613,18.667,41.613,41.612v1.676H95.748V123.102z M95.748,140.947h83.227v14.17H95.748V140.947z M182.173,465.395
			H95.748v-48.51h86.424V465.395z M225.713,123.102v9.76v30.338V402.61c-1.766,1.482-2.89,3.705-2.89,6.19v56.594H198.34V408.8
			c0-2.627-1.258-4.953-3.197-6.429V243.522c0-4.466-3.618-8.084-8.084-8.084c-4.466,0-8.084,3.619-8.084,8.084v157.194H95.748
			V220.169v-48.885h83.227v45.291c0,4.466,3.619,8.084,8.084,8.084c4.466,0,8.084-3.618,8.084-8.084V163.2v-30.338v-9.76
			c0-23.288-13.856-43.388-33.752-52.526V20.176c0-2.156,1.754-3.909,3.91-3.909h90.775c2.155,0,3.908,1.754,3.908,3.909V70.34
			C239.812,79.365,225.713,99.611,225.713,123.102z M327.999,465.395h-89.006v-48.51h89.006V465.395z M371.54,123.102v9.76v30.338
			V402.61c-1.766,1.482-2.89,3.705-2.89,6.19v56.594h-24.483V408.8c0-2.487-1.124-4.708-2.89-6.191V243.522
			c0-4.466-3.618-8.084-8.084-8.084c-4.466,0-8.084,3.619-8.084,8.084v157.194h-83.227V171.285h83.227v45.291
			c0,4.466,3.618,8.084,8.084,8.084c4.466,0,8.084-3.618,8.084-8.084v-53.375v-30.338v-9.76c0-23.491-14.099-43.738-34.272-52.762
			V20.176h0.001c0-2.156,1.754-3.909,3.91-3.909h89.697c2.155,0,3.908,1.754,3.908,3.909v50.748
			C385.037,80.222,371.54,100.114,371.54,123.102z M473.825,465.395h-89.006v-48.51h89.006V465.395z"/>
	</g>
</g>
</svg>