<?xml version="1.0" encoding="utf-8"?>
<!-- Generator: Adobe Illustrator 27.5.0, SVG Export Plug-In . SVG Version: 6.00 Build 0)  -->
<svg version="1.1" xmlns="http://www.w3.org/2000/svg" xmlns:xlink="http://www.w3.org/1999/xlink" x="0px" y="0px"
	 viewBox="0 0 750 500" style="enable-background:new 0 0 750 500;" xml:space="preserve">
<g id="BACKGROUND">
	<rect style="fill:#ECE8E4;" width="750" height="500"/>
</g>
<g id="OBJECTS">
	<g>
		<defs>
			<rect id="SVGID_1_" width="750" height="500"/>
		</defs>
		<clipPath id="SVGID_00000034051672297356004700000017490450186244262784_">
			<use xlink:href="#SVGID_1_"  style="overflow:visible;"/>
		</clipPath>
		<g style="clip-path:url(#SVGID_00000034051672297356004700000017490450186244262784_);">
			<g>
				<circle style="fill:none;stroke:#E1D6D2;stroke-width:2;stroke-miterlimit:10;" cx="605" cy="430" r="101"/>
				<circle style="fill:none;stroke:#E1D6D2;stroke-width:2;stroke-miterlimit:10;" cx="605" cy="430" r="90"/>
				<circle style="fill:none;stroke:#E1D6D2;stroke-width:2;stroke-miterlimit:10;" cx="605" cy="430" r="80"/>
				<circle style="fill:none;stroke:#E1D6D2;stroke-width:2;stroke-miterlimit:10;" cx="605" cy="430" r="69.666"/>
				<circle style="fill:none;stroke:#E1D6D2;stroke-width:2;stroke-miterlimit:10;" cx="605" cy="430" r="57"/>
				<circle style="fill:none;stroke:#E1D6D2;stroke-width:2;stroke-miterlimit:10;" cx="605" cy="430" r="46"/>
			</g>
			<g>
				<circle style="fill:none;stroke:#E1D6D2;stroke-width:2;stroke-miterlimit:10;" cx="-2" cy="499" r="101"/>
				<circle style="fill:none;stroke:#E1D6D2;stroke-width:2;stroke-miterlimit:10;" cx="-2" cy="499" r="90"/>
				<circle style="fill:none;stroke:#E1D6D2;stroke-width:2;stroke-miterlimit:10;" cx="-2" cy="499" r="80"/>
				<circle style="fill:none;stroke:#E1D6D2;stroke-width:2;stroke-miterlimit:10;" cx="-2" cy="499" r="69.666"/>
				<circle style="fill:none;stroke:#E1D6D2;stroke-width:2;stroke-miterlimit:10;" cx="-2" cy="499" r="57"/>
				<circle style="fill:none;stroke:#E1D6D2;stroke-width:2;stroke-miterlimit:10;" cx="-2" cy="499" r="46"/>
			</g>
			<g>
				<circle style="fill:none;stroke:#E1D6D2;stroke-width:2;stroke-miterlimit:10;" cx="279" cy="6" r="171"/>
				<circle style="fill:none;stroke:#E1D6D2;stroke-width:2;stroke-miterlimit:10;" cx="279" cy="6" r="152.376"/>
				<circle style="fill:none;stroke:#E1D6D2;stroke-width:2;stroke-miterlimit:10;" cx="279" cy="6" r="135.445"/>
				<circle style="fill:none;stroke:#E1D6D2;stroke-width:2;stroke-miterlimit:10;" cx="279" cy="6" r="117.949"/>
				<circle style="fill:none;stroke:#E1D6D2;stroke-width:2;stroke-miterlimit:10;" cx="279" cy="6" r="96.505"/>
				<circle style="fill:none;stroke:#E1D6D2;stroke-width:2;stroke-miterlimit:10;" cx="279" cy="6" r="77.881"/>
			</g>
		</g>
		<path style="clip-path:url(#SVGID_00000034051672297356004700000017490450186244262784_);fill:#D7713C;" d="M0,0v170.163
			c55.029,35.138,99.283,53.011,159,8.837c73-54,33-130,153-124c55.015,2.751,88.586-22.875,90.604-55H0z"/>
		<path style="clip-path:url(#SVGID_00000034051672297356004700000017490450186244262784_);fill:#A2ADB1;" d="M750,500V283.104
			C692.678,314.471,712.572,455.339,639,423c-70.085-30.807-102.205,29.728-121.491,77H750z"/>
		<path style="clip-path:url(#SVGID_00000034051672297356004700000017490450186244262784_);fill:#293D43;" d="M100.397,0
			c80.901,68.045,145.21,68.442,207.197,23.602c70.497-50.997,121.494,94.496,241.488-1.5c9.827-7.861,18.247-15.217,25.44-22.102
			H100.397z"/>
		<path style="clip-path:url(#SVGID_00000034051672297356004700000017490450186244262784_);fill:#293D43;" d="M731.257,500
			c-51.01-38.779-69.826,12.893-123.678-36.92c-59.997-55.497-115.494,10.499-208.489-41.998
			c-67.2-37.935-96.804,35.345-108.058,78.918H731.257z"/>
		<g style="clip-path:url(#SVGID_00000034051672297356004700000017490450186244262784_);">
			<g>
				<circle style="fill:#293D43;" cx="30" cy="252.148" r="13"/>
				<circle style="fill:#D7713C;" cx="30" cy="291.5" r="13"/>
				<circle style="fill:#A2ADB1;" cx="30" cy="330.852" r="13"/>
			</g>
			<g>
				<circle style="fill:#293D43;" cx="719" cy="31.148" r="13"/>
				<circle style="fill:#D7713C;" cx="719" cy="70.5" r="13"/>
				<circle style="fill:#A2ADB1;" cx="719" cy="109.852" r="13"/>
			</g>
		</g>
		<g style="clip-path:url(#SVGID_00000034051672297356004700000017490450186244262784_);">
			<g>
				<rect x="9" y="121.094" style="fill:#ECE8E4;" width="41" height="6"/>
				<rect x="9" y="114.334" style="fill:#ECE8E4;" width="41" height="3.187"/>
				<rect x="9" y="109.001" style="fill:#ECE8E4;" width="41" height="3.187"/>
				<rect x="9" y="103.668" style="fill:#ECE8E4;" width="41" height="3.187"/>
				<rect x="9" y="98.335" style="fill:#ECE8E4;" width="41" height="3.187"/>
				<rect x="9" y="93.002" style="fill:#ECE8E4;" width="41" height="3.187"/>
				<rect x="9" y="87.669" style="fill:#ECE8E4;" width="41" height="3.187"/>
			</g>
			<g>
				<rect x="716" y="464.047" style="fill:#ECE8E4;" width="22.502" height="6"/>
				<rect x="716" y="457.287" style="fill:#ECE8E4;" width="22.502" height="3.188"/>
				<rect x="716" y="451.954" style="fill:#ECE8E4;" width="22.502" height="3.187"/>
				<rect x="716" y="446.621" style="fill:#ECE8E4;" width="22.502" height="3.188"/>
				<rect x="716" y="441.288" style="fill:#ECE8E4;" width="22.502" height="3.187"/>
				<rect x="716" y="435.955" style="fill:#ECE8E4;" width="22.502" height="3.188"/>
				<rect x="716" y="430.622" style="fill:#ECE8E4;" width="22.502" height="3.187"/>
			</g>
		</g>
		<g style="clip-path:url(#SVGID_00000034051672297356004700000017490450186244262784_);">
			<rect x="712" y="243.242" style="fill:#293D43;" width="22.502" height="16.806"/>
			<rect x="712" y="224.309" style="fill:#293D43;" width="22.502" height="8.928"/>
			<rect x="712" y="209.372" style="fill:#293D43;" width="22.502" height="8.927"/>
			<rect x="712" y="194.435" style="fill:#293D43;" width="22.502" height="8.928"/>
			<rect x="712" y="179.498" style="fill:#293D43;" width="22.502" height="8.926"/>
			<rect x="712" y="164.56" style="fill:#293D43;" width="22.502" height="8.928"/>
			<rect x="712" y="149.623" style="fill:#293D43;" width="22.502" height="8.926"/>
		</g>
		<g style="clip-path:url(#SVGID_00000034051672297356004700000017490450186244262784_);">
			<g>
				<g>
					<polygon style="fill:#D7713C;" points="597.642,23.402 606.322,23.402 601.981,30.919 597.642,38.437 593.303,30.919 
						588.962,23.402 					"/>
					<polygon style="fill:#D7713C;" points="623.983,23.402 632.664,23.402 628.323,30.919 623.983,38.437 619.644,30.919 
						615.304,23.402 					"/>
					<polygon style="fill:#D7713C;" points="650.325,23.402 659.005,23.402 654.665,30.919 650.325,38.437 645.985,30.919 
						641.644,23.402 					"/>
					<polygon style="fill:#D7713C;" points="676.667,23.402 685.347,23.402 681.006,30.919 676.667,38.437 672.327,30.919 
						667.986,23.402 					"/>
				</g>
				<g>
					<polygon style="fill:#293D43;" points="664.667,51.437 655.986,51.437 660.327,43.919 664.667,36.402 669.006,43.919 
						673.347,51.437 					"/>
					<polygon style="fill:#293D43;" points="638.325,51.437 629.644,51.437 633.985,43.919 638.325,36.402 642.665,43.919 
						647.005,51.437 					"/>
					<polygon style="fill:#293D43;" points="611.983,51.437 603.304,51.437 607.644,43.919 611.983,36.402 616.323,43.919 
						620.664,51.437 					"/>
					<polygon style="fill:#293D43;" points="585.642,51.437 576.962,51.437 581.303,43.919 585.642,36.402 589.981,43.919 
						594.322,51.437 					"/>
				</g>
			</g>
			<g>
				<g>
					<polygon style="fill:#D7713C;" points="139.314,456.482 147.995,456.482 143.654,464 139.314,471.518 134.976,464 
						130.635,456.482 					"/>
					<polygon style="fill:#D7713C;" points="165.656,456.482 174.337,456.482 169.996,464 165.656,471.518 161.316,464 
						156.977,456.482 					"/>
					<polygon style="fill:#D7713C;" points="191.998,456.482 200.678,456.482 196.338,464 191.998,471.518 187.658,464 
						183.317,456.482 					"/>
					<polygon style="fill:#D7713C;" points="218.34,456.482 227.02,456.482 222.679,464 218.34,471.518 214,464 209.659,456.482 
											"/>
				</g>
				<g>
					<polygon style="fill:#293D43;" points="206.34,484.518 197.659,484.518 202,477 206.34,469.482 210.679,477 215.02,484.518 
											"/>
					<polygon style="fill:#293D43;" points="179.998,484.518 171.317,484.518 175.658,477 179.998,469.482 184.338,477 
						188.678,484.518 					"/>
					<polygon style="fill:#293D43;" points="153.656,484.518 144.977,484.518 149.316,477 153.656,469.482 157.996,477 
						162.337,484.518 					"/>
					<polygon style="fill:#293D43;" points="127.314,484.518 118.635,484.518 122.976,477 127.314,469.482 131.654,477 
						135.995,484.518 					"/>
				</g>
			</g>
		</g>
		<g style="clip-path:url(#SVGID_00000034051672297356004700000017490450186244262784_);">
			<polygon style="fill:#293D43;" points="106.654,135.669 132.347,135.669 119.5,157.919 106.654,180.169 93.808,157.919 
				80.962,135.669 			"/>
			<polygon style="fill:#D7713C;" points="474.655,467.17 448.962,467.169 461.81,444.92 474.655,422.669 487.5,444.92 
				500.348,467.169 			"/>
			<polygon style="fill:#ECE8E4;" points="157.086,93.598 168.056,93.598 162.571,103.098 157.086,112.598 151.602,103.098 
				146.117,93.598 			"/>
			<polygon style="fill:#ECE8E4;" points="645.086,449.598 656.057,449.598 650.571,459.098 645.086,468.598 639.602,459.098 
				634.117,449.598 			"/>
			<polygon style="fill:#A2ADB1;" points="384.087,480.599 373.116,480.599 378.602,471.099 384.087,461.599 389.571,471.099 
				395.057,480.599 			"/>
			<polygon style="fill:#ECE8E4;" points="48.985,44.861 59.455,44.861 54.22,53.928 48.985,62.995 43.75,53.928 38.515,44.861 			
				"/>
		</g>
		<g style="clip-path:url(#SVGID_00000034051672297356004700000017490450186244262784_);">
			<g>
				<path style="fill:#293D43;" d="M315.654,80.083c0.003,0.167,0.013,0.333,0.013,0.5c0,14.636-11.864,26.5-26.5,26.5
					c-14.636,0-26.5-11.864-26.5-26.5c0-0.167,0.01-0.333,0.013-0.5h-20c-0.002,0.168-0.013,0.333-0.013,0.5
					c0,25.682,20.818,46.5,46.5,46.5s46.5-20.818,46.5-46.5c0-0.167-0.011-0.332-0.013-0.5H315.654z"/>
				<circle style="fill:#A2ADB1;" cx="289.167" cy="83.417" r="14"/>
			</g>
			<g>
				<path style="fill:#293D43;" d="M622.68,376.167c-0.003-0.168-0.013-0.333-0.013-0.5c0-14.637,11.864-26.5,26.5-26.5
					s26.5,11.863,26.5,26.5c0,0.167-0.01,0.332-0.013,0.5h20c0.002-0.168,0.013-0.333,0.013-0.5c0-25.682-20.818-46.5-46.5-46.5
					s-46.5,20.818-46.5,46.5c0,0.167,0.011,0.332,0.013,0.5H622.68z"/>
				<circle style="fill:#D7713C;" cx="649.167" cy="372.833" r="14"/>
			</g>
			<g>
				<path style="fill:#293D43;" d="M87.654,408.833c0.003,0.168,0.013,0.333,0.013,0.5c0,14.637-11.864,26.5-26.5,26.5
					c-14.636,0-26.5-11.863-26.5-26.5c0-0.167,0.01-0.332,0.013-0.5h-20c-0.002,0.168-0.013,0.333-0.013,0.5
					c0,25.682,20.818,46.5,46.5,46.5s46.5-20.818,46.5-46.5c0-0.167-0.011-0.332-0.013-0.5H87.654z"/>
				<circle style="fill:#D7713C;" cx="61.167" cy="412.167" r="14"/>
			</g>
		</g>
		<g style="clip-path:url(#SVGID_00000034051672297356004700000017490450186244262784_);">
			<g>
				<rect x="456.5" y="74" style="fill:#E1D6D2;" width="9.5" height="9.5"/>
				<rect x="470.75" y="74" style="fill:#E1D6D2;" width="9.5" height="9.5"/>
				<rect x="485" y="74" style="fill:#E1D6D2;" width="9.5" height="9.5"/>
				<rect x="499.25" y="74" style="fill:#E1D6D2;" width="9.5" height="9.5"/>
				<rect x="513.5" y="74" style="fill:#E1D6D2;" width="9.5" height="9.5"/>
				<rect x="527.75" y="74" style="fill:#E1D6D2;" width="9.5" height="9.5"/>
				<rect x="542" y="74" style="fill:#E1D6D2;" width="9.5" height="9.5"/>
				<rect x="556.25" y="74" style="fill:#E1D6D2;" width="9.5" height="9.5"/>
				<rect x="570.5" y="74" style="fill:#E1D6D2;" width="9.5" height="9.5"/>
				<rect x="584.75" y="74" style="fill:#E1D6D2;" width="9.5" height="9.5"/>
				<rect x="599" y="74" style="fill:#E1D6D2;" width="9.5" height="9.5"/>
				<rect x="613.25" y="74" style="fill:#E1D6D2;" width="9.5" height="9.5"/>
				<rect x="627.5" y="74" style="fill:#E1D6D2;" width="9.5" height="9.5"/>
				<rect x="641.75" y="74" style="fill:#E1D6D2;" width="9.5" height="9.5"/>
			</g>
			<g>
				<rect x="557.305" y="90.354" style="fill:#293D43;" width="5.646" height="5.647"/>
				<rect x="565.774" y="90.354" style="fill:#293D43;" width="5.646" height="5.647"/>
				<rect x="574.244" y="90.354" style="fill:#293D43;" width="5.645" height="5.647"/>
				<rect x="582.713" y="90.354" style="fill:#293D43;" width="5.646" height="5.647"/>
				<rect x="591.183" y="90.354" style="fill:#293D43;" width="5.646" height="5.647"/>
				<rect x="599.652" y="90.354" style="fill:#293D43;" width="5.646" height="5.647"/>
				<rect x="608.122" y="90.354" style="fill:#293D43;" width="5.646" height="5.647"/>
				<rect x="616.591" y="90.354" style="fill:#293D43;" width="5.646" height="5.647"/>
				<rect x="625.06" y="90.354" style="fill:#293D43;" width="5.647" height="5.647"/>
				<rect x="633.53" y="90.354" style="fill:#293D43;" width="5.646" height="5.647"/>
				<rect x="642" y="90.354" style="fill:#293D43;" width="5.646" height="5.647"/>
				<rect x="650.47" y="90.354" style="fill:#293D43;" width="5.645" height="5.647"/>
				<rect x="658.938" y="90.354" style="fill:#293D43;" width="5.647" height="5.647"/>
				<rect x="667.408" y="90.354" style="fill:#293D43;" width="5.646" height="5.647"/>
			</g>
			<g>
				<rect x="137.481" y="422.177" style="fill:#293D43;" width="5.647" height="5.646"/>
				<rect x="145.951" y="422.177" style="fill:#293D43;" width="5.647" height="5.646"/>
				<rect x="154.421" y="422.177" style="fill:#293D43;" width="5.646" height="5.646"/>
				<rect x="162.89" y="422.177" style="fill:#293D43;" width="5.647" height="5.646"/>
				<rect x="171.359" y="422.177" style="fill:#293D43;" width="5.647" height="5.646"/>
				<rect x="179.829" y="422.177" style="fill:#293D43;" width="5.647" height="5.646"/>
				<rect x="188.299" y="422.177" style="fill:#293D43;" width="5.647" height="5.646"/>
				<rect x="196.768" y="422.177" style="fill:#293D43;" width="5.647" height="5.646"/>
				<rect x="205.237" y="422.177" style="fill:#293D43;" width="5.647" height="5.646"/>
				<rect x="213.707" y="422.177" style="fill:#293D43;" width="5.647" height="5.646"/>
				<rect x="222.177" y="422.177" style="fill:#293D43;" width="5.646" height="5.646"/>
				<rect x="230.646" y="422.177" style="fill:#293D43;" width="5.646" height="5.646"/>
				<rect x="239.115" y="422.177" style="fill:#293D43;" width="5.646" height="5.646"/>
				<rect x="247.585" y="422.177" style="fill:#293D43;" width="5.646" height="5.646"/>
			</g>
			<g>
				<rect x="155.5" y="433" style="fill:#E1D6D2;" width="9.5" height="9.5"/>
				<rect x="169.75" y="433" style="fill:#E1D6D2;" width="9.5" height="9.5"/>
				<rect x="184" y="433" style="fill:#E1D6D2;" width="9.5" height="9.5"/>
				<rect x="198.25" y="433" style="fill:#E1D6D2;" width="9.5" height="9.5"/>
				<rect x="212.5" y="433" style="fill:#E1D6D2;" width="9.5" height="9.5"/>
				<rect x="226.75" y="433" style="fill:#E1D6D2;" width="9.5" height="9.5"/>
				<rect x="241" y="433" style="fill:#E1D6D2;" width="9.5" height="9.5"/>
				<rect x="255.25" y="433" style="fill:#E1D6D2;" width="9.5" height="9.5"/>
				<rect x="269.5" y="433" style="fill:#E1D6D2;" width="9.5" height="9.5"/>
				<rect x="283.75" y="433" style="fill:#E1D6D2;" width="9.5" height="9.5"/>
				<rect x="298" y="433" style="fill:#E1D6D2;" width="9.5" height="9.5"/>
				<rect x="312.25" y="433" style="fill:#E1D6D2;" width="9.5" height="9.5"/>
				<rect x="326.5" y="433" style="fill:#E1D6D2;" width="9.5" height="9.5"/>
				<rect x="340.75" y="433" style="fill:#E1D6D2;" width="9.5" height="9.5"/>
			</g>
		</g>
	</g>
</g>
</svg>
